<svg xmlns="http://www.w3.org/2000/svg" width="28" height="28" viewBox="0 0 28 28" fill="none"><rect x="0.5" y="0.5" width="27" height="27" rx="13.5" stroke="#1A1A1A"></rect><path d="M11.5248 10.0402C11.1148 9.63016 10.4499 9.63016 10.0399 10.0402C9.62983 10.4502 9.62983 11.1151 10.0399 11.5251L12.5147 14L10.0399 16.4749C9.62983 16.8849 9.62983 17.5498 10.0399 17.9598C10.4499 18.3698 11.1148 18.3698 11.5248 17.9598L13.9997 15.4849L16.4745 17.9598C16.8846 18.3698 17.5494 18.3698 17.9595 17.9598C18.3695 17.5498 18.3695 16.8849 17.9595 16.4749L15.4846 14L17.9595 11.5251C18.3695 11.1151 18.3695 10.4502 17.9595 10.0402C17.5494 9.63016 16.8846 9.63017 16.4745 10.0402L13.9997 12.5151L11.5248 10.0402Z" fill="#1A1A1A"></path></svg>