<svg xmlns="http://www.w3.org/2000/svg" width="47" height="47" viewBox="0 0 47 47" fill="none"><circle cx="23.5" cy="23.5" r="23" fill="#CCAF72" stroke="#EDEDED"></circle><path d="M16.9001 26.8001C15.0521 26.8001 13.6001 25.3481 13.6001 23.5001C13.6001 21.6521 15.0521 20.2001 16.9001 20.2001C18.7481 20.2001 20.2001 21.6521 20.2001 23.5001C20.2001 25.3481 18.7481 26.8001 16.9001 26.8001ZM16.9001 21.5201C15.7781 21.5201 14.9201 22.3781 14.9201 23.5001C14.9201 24.6221 15.7781 25.4801 16.9001 25.4801C18.0221 25.4801 18.8801 24.6221 18.8801 23.5001C18.8801 22.3781 18.0221 21.5201 16.9001 21.5201ZM30.1001 20.2001C28.2521 20.2001 26.8001 18.7481 26.8001 16.9001C26.8001 15.0521 28.2521 13.6001 30.1001 13.6001C31.9481 13.6001 33.4001 15.0521 33.4001 16.9001C33.4001 18.7481 31.9481 20.2001 30.1001 20.2001ZM30.1001 14.9201C28.9781 14.9201 28.1201 15.7781 28.1201 16.9001C28.1201 18.0221 28.9781 18.8801 30.1001 18.8801C31.2221 18.8801 32.0801 18.0221 32.0801 16.9001C32.0801 15.7781 31.2221 14.9201 30.1001 14.9201ZM30.1001 33.4001C28.2521 33.4001 26.8001 31.9481 26.8001 30.1001C26.8001 28.2521 28.2521 26.8001 30.1001 26.8001C31.9481 26.8001 33.4001 28.2521 33.4001 30.1001C33.4001 31.9481 31.9481 33.4001 30.1001 33.4001ZM30.1001 28.1201C28.9781 28.1201 28.1201 28.9781 28.1201 30.1001C28.1201 31.2221 28.9781 32.0801 30.1001 32.0801C31.2221 32.0801 32.0801 31.2221 32.0801 30.1001C32.0801 28.9781 31.2221 28.1201 30.1001 28.1201Z" fill="white"></path><path d="M19.5446 24.0841L28.0454 28.3345L27.4547 29.5146L18.9539 25.2642L19.5446 24.0841ZM27.4553 17.4841L28.0454 18.6655L19.5446 22.9146L18.9545 21.7332L27.4553 17.4841Z" fill="white"></path></svg>