<svg xmlns="http://www.w3.org/2000/svg" width="47" height="47" viewBox="0 0 47 47" fill="none"><circle cx="23.5" cy="23.5" r="23" fill="#CCAF72" stroke="#EDEDED"></circle><g clip-path="url(#clip0_72_262)"><mask id="mask0_72_262" style="mask-type:luminance" maskUnits="userSpaceOnUse" x="10" y="10" width="27" height="27"><path d="M10 10H37V37H10V10Z" fill="white"></path></mask><g mask="url(#mask0_72_262)"><path d="M23.5 13.9551C24.3713 13.9551 25.082 13.2443 25.082 12.373C25.082 11.5017 24.3713 10.791 23.5 10.791C22.6286 10.791 21.918 11.5017 21.918 12.373C21.918 13.2443 22.6286 13.9551 23.5 13.9551Z" stroke="white" stroke-miterlimit="22.926" stroke-linecap="round" stroke-linejoin="round"></path><path d="M23.5 36.209C24.3713 36.209 25.082 35.4983 25.082 34.627C25.082 33.7556 24.3713 33.0449 23.5 33.0449C22.6286 33.0449 21.918 33.7556 21.918 34.627C21.918 35.4983 22.6286 36.209 23.5 36.209Z" stroke="white" stroke-miterlimit="22.926" stroke-linecap="round" stroke-linejoin="round"></path><path d="M36.209 23.5C36.209 24.3737 35.5007 25.082 34.627 25.082C33.7532 25.082 33.0449 24.3737 33.0449 23.5C33.0449 22.6263 33.7532 21.918 34.627 21.918C35.5007 21.918 36.209 22.6263 36.209 23.5Z" stroke="white" stroke-miterlimit="22.926" stroke-linecap="round" stroke-linejoin="round"></path><path d="M13.9551 23.5C13.9551 24.3737 13.2468 25.082 12.373 25.082C11.4993 25.082 10.791 24.3737 10.791 23.5C10.791 22.6263 11.4993 21.918 12.373 21.918C13.2468 21.918 13.9551 22.6263 13.9551 23.5Z" stroke="white" stroke-miterlimit="22.926" stroke-linecap="round" stroke-linejoin="round"></path><path d="M30.4609 23.5C30.4609 27.3444 27.3444 30.4609 23.5 30.4609C19.6556 30.4609 16.5391 27.3444 16.5391 23.5C16.5391 19.6556 19.6556 16.5391 23.5 16.5391C27.3444 16.5391 30.4609 19.6556 30.4609 23.5Z" stroke="white" stroke-miterlimit="22.926" stroke-linecap="round" stroke-linejoin="round"></path><path d="M14.5134 14.5134C15.1313 13.8956 16.133 13.8956 16.7508 14.5134C17.3686 15.1312 17.3686 16.1329 16.7508 16.7508C16.133 17.3686 15.1313 17.3686 14.5134 16.7508C13.8956 16.1329 13.8956 15.1312 14.5134 14.5134Z" stroke="white" stroke-miterlimit="22.926" stroke-linecap="round" stroke-linejoin="round"></path><path d="M30.2492 30.2493C30.8671 29.6314 31.8688 29.6314 32.4866 30.2493C33.1044 30.8671 33.1044 31.8688 32.4866 32.4866C31.8688 33.1044 30.8671 33.1044 30.2492 32.4866C29.6314 31.8688 29.6314 30.8671 30.2492 30.2493Z" stroke="white" stroke-miterlimit="22.926" stroke-linecap="round" stroke-linejoin="round"></path><path d="M32.4866 14.5134C33.1044 15.1312 33.1044 16.1329 32.4866 16.7508C31.8688 17.3686 30.8671 17.3686 30.2492 16.7508C29.6314 16.1329 29.6314 15.1312 30.2492 14.5134C30.8671 13.8956 31.8688 13.8956 32.4866 14.5134Z" stroke="white" stroke-miterlimit="22.926" stroke-linecap="round" stroke-linejoin="round"></path><path d="M16.7508 30.2493C17.3686 30.8671 17.3686 31.8688 16.7508 32.4866C16.133 33.1044 15.1313 33.1044 14.5134 32.4866C13.8956 31.8688 13.8956 30.8671 14.5134 30.2493C15.1313 29.6314 16.133 29.6314 16.7508 30.2493Z" stroke="white" stroke-miterlimit="22.926" stroke-linecap="round" stroke-linejoin="round"></path><path d="M23.5 15.8015V13.9551" stroke="white" stroke-miterlimit="22.926" stroke-linecap="round" stroke-linejoin="round"></path><path d="M23.5 32.6494V31.5684" stroke="white" stroke-miterlimit="22.926" stroke-linecap="round" stroke-linejoin="round"></path><path d="M29.1946 17.8713L30.2958 16.77" stroke="white" stroke-miterlimit="22.926" stroke-linecap="round" stroke-linejoin="round"></path><path d="M16.9941 30.0718L17.957 29.1089" stroke="white" stroke-miterlimit="22.926" stroke-linecap="round" stroke-linejoin="round"></path><path d="M28.978 29.0441L30.0519 30.1179" stroke="white" stroke-miterlimit="22.926" stroke-linecap="round" stroke-linejoin="round"></path><path d="M16.7041 16.7699L17.772 17.8379" stroke="white" stroke-miterlimit="22.926" stroke-linecap="round" stroke-linejoin="round"></path><path d="M31.2812 23.5659H32.5834" stroke="white" stroke-miterlimit="22.926" stroke-linecap="round" stroke-linejoin="round"></path><path d="M14.4165 23.5659H15.3951" stroke="white" stroke-miterlimit="22.926" stroke-linecap="round" stroke-linejoin="round"></path><path d="M25.082 25.8723L23.5 27.4543L21.918 25.8723V21.1276C21.918 20.2575 22.6299 19.5456 23.5 19.5456C24.3701 19.5456 25.082 20.2576 25.082 21.1276V25.8723Z" stroke="white" stroke-miterlimit="22.926" stroke-linecap="round" stroke-linejoin="round"></path><path d="M22.0762 22.3406H24.7656" stroke="white" stroke-miterlimit="22.926" stroke-linecap="round" stroke-linejoin="round"></path></g></g><defs><clipPath id="clip0_72_262"><rect width="27" height="27" fill="white" transform="translate(10 10)"></rect></clipPath></defs></svg>